<svg width="1200pt" height="1200pt" version="1.1" viewBox="0 0 1200 1200"> <path d="m599.64-0.35938c-159 0-312 63-423 177-114 111-177 264-177 423 0 159 63 312 177 423 111 114 264 177 423 177 120 0 237-36 336-102l210 99c33 15 66-18 51-51l-99-210c66-99 102-216 102-336 0-159-63-312-177-423-111-114-264-177-423-177zm0 75c138 0 273 54 372 153s153 234 153 372c0 111-36 219-102 309-9 12-9 27-3 39l63 135-135-63c-12-6-27-6-39 3-90 66-198 102-309 102-138 0-273-54-372-153-99-98.996-153-234-153-372s54-273 153-372 234-153 372-153z" />
</svg>