<svg height="264.0mm" stroke-miterlimit="10" style="fill-rule:nonzero;clip-rule:evenodd;stroke-linecap:round;stroke-linejoin:round;" version="1.1" viewBox="0 0 748.44 748.44" width="264.0mm" xml:space="preserve">
<defs />
<clipPath id="ArtboardFrame">
<rect height="748.44" width="748.44" x="0" y="0" />
</clipPath>
<g clip-path="url(#ArtboardFrame)" id="Layer-1">
<path d="M261.394 54.1938C172.768 54.1938 99.9402 117.302 99.9402 196.526C99.9402 275.749 172.768 338.888 261.394 338.888C350.019 338.888 422.816 275.749 422.816 196.526C422.816 117.302 350.019 54.1938 261.394 54.1938ZM261.394 93.5851C329.011 93.5851 382.859 140.262 382.859 196.526C382.859 252.79 329.011 299.497 261.394 299.497C193.777 299.497 139.898 252.79 139.898 196.526C139.898 140.262 193.777 93.5851 261.394 93.5851Z" fill="currentColor" fill-rule="nonzero" opacity="0.999308" stroke="none" />
<path d="M474.418 0C408.572 0 349.779 35.1498 325.045 88.4458C320.871 97.4389 324.127 108.065 332.631 113.312C364.139 132.752 382.859 163.445 382.859 196.526C382.859 209.427 379.953 222.078 374.368 234.101C370.19 243.094 373.449 253.749 381.953 258.998C408.943 275.657 440.947 284.725 474.418 284.725C563.045 284.725 635.84 221.585 635.84 142.363C635.84 106.313 620.584 72.4268 593.76 46.4694C563.321 17.0144 520.356 0 474.418 0ZM474.418 39.3913C509.974 39.3913 542.886 52.4339 565.789 74.5973C585.158 93.3399 595.882 117.19 595.882 142.363C595.882 198.624 542.037 245.334 474.418 245.334C454.104 245.334 434.609 240.981 417.197 233.024C420.785 221.182 422.816 208.969 422.816 196.526C422.816 155.334 402.848 117.351 369.373 90.8154C390.66 59.6958 430.161 39.3913 474.418 39.3913Z" fill="currentColor" fill-rule="nonzero" opacity="0.999308" stroke="none" />
<path d="M198.96 299.497C191.355 299.28 185.302 299.618 178.326 300.543C158.291 303.2 141.537 311.345 127.63 326.486C92.9467 364.244 73.1561 415.082 73.1561 469.187C73.1561 473.106 73.156 474.555 73.0937 486.39C72.8814 526.668 73.144 552.133 74.5297 580.899C75.9502 610.391 78.4374 635.759 82.3027 656.665C87.2099 683.208 94.171 702.353 105.122 714.275C117.334 727.569 133.678 736.35 153.696 741.634C169.427 745.786 186.96 747.746 208.2 748.281C218.064 748.529 226.217 748.47 242.664 748.219C252.744 748.066 256.51 748.035 261.394 748.035C266.278 748.035 270.013 748.066 280.093 748.219C296.539 748.47 304.692 748.529 314.556 748.281C335.796 747.746 353.329 745.786 369.061 741.634C389.078 736.35 405.423 727.569 417.634 714.275C428.585 702.353 435.546 683.208 440.454 656.665C444.319 635.759 446.806 610.391 448.227 580.899C449.612 552.133 449.875 526.668 449.663 486.39C449.6 474.555 449.6 473.106 449.6 469.187C449.6 415.082 429.841 364.244 395.158 326.486C381.25 311.345 364.465 303.2 344.431 300.543C330.478 298.693 320.319 299.157 293.734 301.774C278.27 303.297 270.405 303.867 261.394 303.867C252.383 303.867 244.486 303.297 229.022 301.774C215.73 300.466 206.565 299.714 198.96 299.497ZM190.937 338.919C198.491 338.598 207.618 339.264 225.057 340.981C241.79 342.629 250.661 343.258 261.394 343.258C272.126 343.258 280.966 342.629 297.699 340.981C320.952 338.692 329.407 338.281 339.093 339.565C350.122 341.028 358.232 344.973 365.533 352.922C393.541 383.413 409.643 424.824 409.643 469.187C409.643 473.207 409.642 474.64 409.705 486.575C409.914 526.198 409.643 551.139 408.3 579.021C406.957 606.918 404.649 630.668 401.152 649.587C397.486 669.413 392.588 682.855 388.009 687.84C375.324 701.65 351.5 707.934 313.526 708.89C304.38 709.12 296.63 709.101 280.717 708.859C270.418 708.702 266.561 708.644 261.394 708.644C256.227 708.644 252.338 708.702 242.039 708.859C226.127 709.101 218.377 709.12 209.23 708.89C171.257 707.934 147.432 701.65 134.747 687.84C130.168 682.855 125.27 669.413 121.605 649.587C118.107 630.668 115.8 606.918 114.456 579.021C113.113 551.139 112.842 526.198 113.051 486.575C113.114 474.64 113.114 473.207 113.114 469.187C113.114 424.824 129.215 383.413 157.223 352.922C164.524 344.973 172.635 341.028 183.664 339.565C186.085 339.244 188.42 339.026 190.937 338.919Z" fill="currentColor" fill-rule="nonzero" opacity="0.999308" stroke="none" />
<path d="M548.87 245.303C541.265 245.52 532.069 246.303 518.777 247.611C503.314 249.134 495.447 249.673 486.436 249.673C477.425 249.673 469.556 249.134 454.095 247.611C436.507 245.879 430.142 245.384 421.068 245.334C392.588 245.178 370.701 252.665 352.672 272.292C342.568 283.292 333.607 295.834 325.763 309.714C318.461 322.634 327.685 338.575 342.682 338.981C358.514 339.409 368.693 343.277 377.552 352.922C405.555 383.408 421.63 424.818 421.63 469.187C421.63 473.185 421.631 474.627 421.692 486.452C421.899 526.108 421.668 551.027 420.319 578.929C418.446 617.642 414.641 648.325 408.644 668.668C405.023 680.948 414.068 693.318 427.03 693.841C428.922 693.917 430.846 694.005 432.805 694.056C442.844 694.322 451.119 694.274 467.862 694.026C477.86 693.878 481.583 693.841 486.436 693.841C491.324 693.841 495.077 693.872 505.166 694.026C521.609 694.276 529.737 694.335 539.598 694.087C560.839 693.553 578.403 691.592 594.134 687.44C614.152 682.157 630.497 673.375 642.708 660.081C653.659 648.159 660.591 629.014 665.496 602.472C669.359 581.566 671.851 556.197 673.269 526.705C674.65 497.972 674.919 472.528 674.705 432.289C674.642 420.38 674.642 418.959 674.642 415.024C674.643 360.914 654.88 310.047 620.2 272.292C606.293 257.151 589.507 249.007 569.473 246.35C562.497 245.424 556.475 245.086 548.87 245.303ZM420.849 284.725C428.192 284.766 433.888 285.188 450.131 286.787C466.86 288.434 475.703 289.064 486.436 289.065C497.168 289.065 506.01 288.434 522.741 286.787C545.994 284.498 554.45 284.118 564.135 285.402C575.164 286.865 583.274 290.779 590.575 298.728C618.579 329.214 634.685 370.655 634.685 415.024C634.685 419.062 634.683 420.494 634.747 432.504C634.958 472.09 634.712 496.976 633.374 524.828C632.033 552.724 629.69 576.475 626.194 595.394C622.531 615.218 617.661 628.662 613.083 633.646C600.4 647.454 576.573 653.741 538.599 654.696C529.455 654.926 521.699 654.877 505.791 654.634C495.482 654.477 491.607 654.45 486.436 654.45C481.308 654.45 477.48 654.483 467.269 654.634C460.169 654.739 457.355 654.615 452.628 654.634C456.326 634.12 458.821 609.602 460.214 580.806C461.606 552.018 461.86 526.58 461.65 486.267C461.589 474.541 461.587 473.084 461.587 469.187C461.587 415.077 441.825 364.21 407.145 326.455C398.069 316.575 387.897 309.832 376.428 305.529C378.328 303.183 380.299 300.903 382.297 298.728C391.794 288.389 402.821 284.627 420.849 284.725Z" fill="currentColor" fill-rule="nonzero" opacity="0.999308" stroke="none" />
</g>
</svg>